<svg xmlns="http://www.w3.org/2000/svg" viewBox="0 0 2261 1080"><defs><style>.cls-1,.cls-2,.cls-3,.cls-4,.cls-5,.cls-6{fill:none;stroke-miterlimit:10;}.cls-1,.cls-2,.cls-4,.cls-5,.cls-6{stroke:#fff;}.cls-1,.cls-3{stroke-width:3.27px;}.cls-2{stroke-width:3.25px;}.cls-3{stroke:#000;}.cls-4{stroke-width:3.22px;}.cls-5{stroke-width:3.27px;}.cls-6{stroke-width:7.07px;}</style></defs><title>Asset 2WOW</title><g id="Layer_2" data-name="Layer 2"><g id="Layer_1-2" data-name="Layer 1"><rect x="1177" width="1084" height="1080"/><line class="cls-1" x1="2238.85" y1="123.06" x2="2238.85" y2="29.15"/><line class="cls-2" x1="2240.5" y1="182.67" x2="2189.5" y2="182.67"/><rect width="1084" height="1080"/><rect class="cls-1" x="40.64" y="634.53" width="649.58" height="93.92"/><rect class="cls-1" x="40.64" y="791.06" width="649.58" height="93.92"/><polyline class="cls-1" points="40.64 478.01 412.26 29.15 1060 31 690.22 478.01"/><polyline class="cls-1" points="690.44 572.69 1062.07 123.83 1061.85 29.15"/><polyline class="cls-1" points="690.22 634.53 1061.85 185.67 1061.85 279.59 690.22 728.45"/><polyline class="cls-1" points="1061.85 504.02 1061.85 592.64 690.22 1041.5"/><line class="cls-3" x1="40.64" y1="634.53" x2="92.26" y2="571.92"/><line class="cls-3" x1="40.64" y1="947.58" x2="92.26" y2="884.97"/><rect class="cls-1" x="40.64" y="478.01" width="649.58" height="93.92"/><rect class="cls-1" x="40.64" y="947.58" width="649.58" height="93.92"/><line class="cls-1" x1="40.64" y1="478.01" x2="412.26" y2="29.15"/><line class="cls-1" x1="1061.85" y1="123.06" x2="1061.85" y2="29.15"/><polyline class="cls-1" points="690.22 634.53 1061.85 185.67 1061.85 279.59 690 729"/><polyline class="cls-1" points="689.91 792.1 1061 344 1061.85 436.12 691 885"/><polyline class="cls-1" points="690 949 1061.85 504.02 1061.85 592.64 690.22 1041.5"/><line class="cls-1" x1="1062.5" y1="341" x2="1010.5" y2="341"/><line class="cls-2" x1="1063.5" y1="182.67" x2="1012.5" y2="182.67"/><line class="cls-4" x1="1062.85" y1="501.02" x2="1008.5" y2="501.02"/><line class="cls-5" x1="40.64" y1="634.53" x2="92.26" y2="571.92"/><line class="cls-5" x1="40" y1="791" x2="82.38" y2="728.45"/><line class="cls-5" x1="40.64" y1="947.58" x2="92.26" y2="884.97"/><polygon class="cls-6" points="1257.86 428.28 1339.42 346.72 1552.07 559.37 1764.72 346.72 1846.29 428.28 1634.37 640.93 1846.29 853.58 1764.72 935.15 1552.07 723.23 1339.42 935.15 1257.86 853.58 1470.51 640.93 1257.86 428.28"/><polyline class="cls-6" points="1552.07 134.06 1633.64 52.5 1846.29 265.15 2058.94 52.5 2140.51 134.06 1928.58 346.72 2140.51 559.37 2058.94 640.93"/><line class="cls-6" x1="1552.07" y1="559.37" x2="1764.72" y2="346.72"/><path class="cls-6" d="M1633.64,52.5,1339.42,346.72Z"/><line class="cls-6" x1="1846.29" y1="853.58" x2="2058.94" y2="640.93"/><polyline class="cls-6" points="1846.29 429.01 1764.72 346.72 2058.94 52.5 2140.51 134.06 1846.29 429.01"/><line class="cls-6" x1="1552.07" y1="559.37" x2="1339.42" y2="346.72"/></g></g></svg>