<svg xmlns="http://www.w3.org/2000/svg" viewBox="0 0 378.56 378.56"><defs><style>.cls-1{fill:none;stroke:#000;stroke-miterlimit:10;stroke-width:8px;}</style></defs><title>exit-2</title><g id="Layer_2" data-name="Layer 2"><g id="Layer_1-2" data-name="Layer 1"><polygon class="cls-1" points="1.92 161.46 36.55 126.83 126.83 217.11 217.11 126.83 251.74 161.46 161.76 251.74 251.74 342.01 217.11 376.64 126.83 286.67 36.55 376.64 1.92 342.01 92.2 251.74 1.92 161.46"/><polyline class="cls-1" points="126.83 36.55 161.46 1.92 251.74 92.2 342.01 1.92 376.64 36.55 286.67 126.83 376.64 217.11 342.01 251.74"/><line class="cls-1" x1="126.83" y1="217.11" x2="217.11" y2="126.83"/><path class="cls-1" d="M161.46,1.92,36.55,126.83Z"/><line class="cls-1" x1="251.73" y1="342.01" x2="342.01" y2="251.73"/><polyline class="cls-1" points="251.74 161.76 217.11 126.83 342.01 1.92 376.64 36.55 251.74 161.76"/><line class="cls-1" x1="126.83" y1="217.11" x2="36.55" y2="126.83"/></g></g></svg>