<svg xmlns="http://www.w3.org/2000/svg" viewBox="0 0 378.96 378.96"><title>exit-6</title><g id="Layer_2" data-name="Layer 2"><g id="Layer_1-2" data-name="Layer 1"><path d="M217.31,379,127,289,36.75,379,0,342.21l90.28-90.28L0,161.66l36.75-36.75L127,215.19l90.28-90.28,36.74,36.74-90,90.28,90,90.29ZM127,284.75l90.28,90,32.51-32.51-90-90.28,90-90.27-32.51-32.51L127,219.43,36.75,129.15,4.24,161.66l90.28,90.27L4.24,342.21l32.51,32.51Z"/><polygon points="343.27 253 341.15 250.87 374.72 217.31 284.75 127.03 374.72 36.75 342.21 4.24 251.94 94.52 161.66 4.24 128.09 37.81 125.97 35.69 161.66 0 251.94 90.28 342.21 0 378.96 36.75 288.99 127.03 378.96 217.31 343.27 253"/><rect x="108.33" y="170.67" width="127.67" height="3" transform="translate(-71.31 172.17) rotate(-45)"/><rect x="10.88" y="63.07" width="176.64" height="3" transform="translate(-16.61 89.06) rotate(-45)"/><rect x="233.24" y="295.57" width="127.67" height="3" transform="translate(-123.05 297.07) rotate(-45)"/><path d="M251.93,164.09,215.19,127l127-127L379,36.75l-1.06,1.06ZM219.42,127l32.52,32.81L374.72,36.75,342.21,4.24Z"/><rect x="80.39" y="108.33" width="3" height="127.67" transform="translate(-97.76 108.33) rotate(-45)"/></g></g></svg>