<svg xmlns="http://www.w3.org/2000/svg" viewBox="0 0 200.79 170.75"><title>logo</title><g id="Layer_2" data-name="Layer 2"><g id="Layer_1-2" data-name="Layer 1"><path d="M7.54,8.43,0,14V6L7.54.44h7.54V53.07H7.54Z"/><path d="M18.11,46l13.6-25.64C33,17.74,33,16.26,33,13.38c0-2.66,0-5.84-3.7-5.84a3.44,3.44,0,0,0-3.69,3.77V15.6H18.11V11.46A11.38,11.38,0,0,1,29.42,0c7.83,0,11.16,6.21,11.16,13.23,0,5.1-.15,6.43-2.52,10.94L27,45.53h13.6v7.54H18.11Z"/><path d="M43.9,45.52h7.54v4L43.9,55Z"/><path d="M57.12,4.07a10.91,10.91,0,0,1,17,0c2,2.51,2.73,4.36,2.73,10.12,0,6.21-.15,8.35-3.77,11.24,3.62,2.73,3.77,4.95,3.77,12.93,0,6.43-.52,8.2-2.07,10.5a10.63,10.63,0,0,1-9.16,4.65,10.64,10.64,0,0,1-9.17-4.65c-1.55-2.3-2.07-4.07-2.07-10.5,0-8,.15-10.2,3.77-12.93-3.62-2.89-3.77-5-3.77-11.24C54.38,8.43,55.12,6.58,57.12,4.07Zm12.19,7.16a3.7,3.7,0,0,0-7.39,0v7.69a3.7,3.7,0,1,0,7.39,0Zm0,20.7a3.7,3.7,0,1,0-7.39,0V42.28a3.7,3.7,0,0,0,7.39,0Z"/><path d="M80.05,11.31a11.24,11.24,0,1,1,22.47,0V42.2a11.24,11.24,0,1,1-22.47,0ZM87.59,42.2a3.7,3.7,0,1,0,7.39,0V11.31a3.7,3.7,0,1,0-7.39,0Z"/><path d="M105.62,11.31a11.24,11.24,0,1,1,22.47,0V42.2a11.24,11.24,0,1,1-22.47,0Zm7.54,30.89a3.7,3.7,0,1,0,7.39,0V11.31a3.7,3.7,0,1,0-7.39,0Z"/><polygon points="149.16 20.62 149.16 9.22 142.6 9.22 142.6 20.62 131.21 20.62 131.21 27.17 142.6 27.17 142.6 38.57 149.16 38.57 149.16 27.17 160.56 27.17 160.56 20.62 149.16 20.62"/><path d="M.11,59.29H7.36L17,87.15h.15L26.8,59.29h7.31v52.62H26.57v-32h-.14L19,102.53H15.19L7.8,79.91H7.65v32H.11Z"/><path d="M37.22,59.29h7.54v52.62H37.22Z"/><path d="M73.54,74.44H66v-1.7c0-3.47-1.48-6.36-5.32-6.36-4.14,0-5.1,3.33-5.1,6.8,0,4.07.37,5.47,4.29,7l5.76,2.29c6.66,2.51,7.91,6.72,7.91,14.41,0,8.87-3.25,15.45-13,15.45-7.31,0-12.86-5.4-12.86-12.49V97.06h7.54v2.36c0,2.74,1.48,5.4,5.32,5.4,5.1,0,5.47-3,5.47-7.84,0-5.61-.66-6.5-4.36-8l-5.39-2.22C49.74,84.12,48,79.84,48,73.26c0-8,4.29-14.41,12.94-14.41a12.32,12.32,0,0,1,12.56,11.9Z"/><path d="M102.33,74.44H94.79v-1.7c0-3.47-1.48-6.36-5.32-6.36-4.14,0-5.1,3.33-5.1,6.8,0,4.07.37,5.47,4.28,7l5.77,2.29c6.65,2.51,7.91,6.72,7.91,14.41,0,8.87-3.26,15.45-13,15.45-7.32,0-12.86-5.4-12.86-12.49V97.06H84v2.36c0,2.74,1.48,5.4,5.32,5.4,5.1,0,5.47-3,5.47-7.84,0-5.61-.67-6.5-4.36-8L85,86.78c-6.5-2.66-8.2-6.94-8.2-13.52,0-8,4.28-14.41,12.93-14.41a12.33,12.33,0,0,1,12.57,11.9Z"/><path d="M105.5,59.29H113v52.62H105.5Z"/><path d="M116.16,59.29h7.24L134.78,91h.15V59.29h7.54v52.62h-7.1L123.84,80.28h-.15v31.63h-7.53Z"/><path d="M145.58,71.71a12.34,12.34,0,0,1,12.64-12.86c6.14,0,12.64,4.28,12.64,12.86v2.66h-7.54V71.71c0-3.63-2.36-5.33-5.1-5.33s-5.1,1.7-5.1,5.33V99.5c0,3.62,2.37,5.32,5.1,5.32s5.1-1.7,5.1-5.32V89.59h-6V82.94h13.53V99.5a12.64,12.64,0,1,1-25.28,0Z"/><path d="M24.43,158.55a12.16,12.16,0,0,1-12,12.2C6.69,170.75,0,167.94,0,158.33v-29c0-6.88,5-12.12,12.27-12.12,7,0,12.12,5.24,12.12,12.56v3H16.89v-2.51c0-3-1.77-5.47-4.65-5.47-3.77,0-4.66,2.58-4.66,6.13v26.9c0,3,1.18,5.4,4.58,5.4,2.07,0,4.73-1.18,4.73-5.32V155.3h7.54Z"/><path d="M27.54,117.68h7.53v22.54h9.32V117.68h7.54v52.63H44.39V146.88H35.07v23.43H27.54Z"/><path d="M55,117.68h7.54v52.63H55Z"/><path d="M65.67,117.68h7.54v45.09H88.14v7.54H65.67Z"/><path d="M91.25,117.68h11.16c8.5,0,13.23,5.1,13.23,13.6v24.61c0,9.76-5,14.42-13.9,14.42H91.25Zm7.54,45.53h3.47c4.21,0,5.84-2.07,5.84-6.58V131.28c0-4.14-1.4-6.5-5.84-6.5H98.79Z"/><path d="M118.74,117.68h12.12c8.95,0,13.31,5.25,13.31,15.45,0,6.06-1.7,10.49-6.51,13.15l8.13,24h-8l-7-22.47h-4.51v22.47h-7.54Zm7.54,23.5h4.29c5.25,0,6.06-3,6.06-8.2s-.89-8.2-6.43-8.2h-3.92Z"/><path d="M148.9,117.68h22.47v7.1H156.44v15.44h13v7.1h-13v15.45h14.93v7.54H148.9Z"/><path d="M174.47,117.68h7.25l11.38,31.71h.15V117.68h7.54v52.63h-7.1l-11.53-31.64H182v31.64h-7.54Z"/></g></g></svg>