<svg xmlns="http://www.w3.org/2000/svg" viewBox="0 0 131.46 129.99"><defs><style>.cls-1{fill:#fff;stroke-width:5px;}.cls-1,.cls-2{stroke:#000;stroke-miterlimit:10;}.cls-2{fill:none;stroke-width:5px;}</style></defs><title>menu</title><g id="Layer_2" data-name="Layer 2"><g id="Layer_1-2" data-name="Layer 1"><rect class="cls-1" x="0.33" y="57.66" width="83" height="12"/><rect class="cls-1" x="0.33" y="77.66" width="83" height="12"/><rect class="cls-1" x="0.33" y="97.66" width="83" height="12"/><rect class="cls-1" x="0.33" y="117.66" width="83" height="12"/><polyline class="cls-2" points="0.33 57.66 47.82 0.3 130.82 0.3 83.33 57.66"/><polyline class="cls-2" points="83.33 69.66 130.82 12.3 130.82 0.3"/><polyline class="cls-2" points="83.33 77.66 130.82 20.3 130.82 32.3 83.33 89.66"/><polyline class="cls-2" points="83.33 98.33 130.82 40.98 130.82 52.3 83.33 109.66"/><polyline class="cls-2" points="83.33 118.33 130.82 60.98 130.82 72.3 83.33 129.66"/><line class="cls-2" x1="130.82" y1="40.98" x2="123.63" y2="40.98"/><line class="cls-2" x1="130.82" y1="20.3" x2="124.19" y2="20.3"/><line class="cls-2" x1="130.82" y1="60.98" x2="123.63" y2="60.98"/><line class="cls-2" x1="0.33" y1="77.66" x2="6.93" y2="69.66"/><line class="cls-2" x1="0.33" y1="97.66" x2="5.67" y2="89.66"/><line class="cls-2" x1="0.33" y1="117.66" x2="6.93" y2="109.66"/></g></g></svg>