<svg xmlns="http://www.w3.org/2000/svg" viewBox="0 0 1028.33 1018.35"><defs><style>.cls-1{fill:#fff;}</style></defs><title>menu-5</title><g id="Layer_2" data-name="Layer 2"><g id="Layer_1-2" data-name="Layer 1"><rect class="cls-1" x="279.3" y="172.03" width="97.92" height="653.58" rx="2" ry="2" transform="translate(827.07 170.56) rotate(90)"/><rect class="cls-1" x="3.46" y="451.86" width="649.58" height="93.92"/><path d="M2.46,548.78a2,2,0,0,1-2-2V450.86a2,2,0,0,1,2-2H654.05a2,2,0,0,1,2,2v95.92a2,2,0,0,1-2,2Zm647.59-6V454.86H6.46v87.92Z"/><path d="M654.05,546.78H2.46V450.86H654.05Zm-649.59-2H652.05V452.86H4.46Z"/><rect class="cls-1" x="279.3" y="328.55" width="97.92" height="653.58" rx="2" ry="2" transform="translate(983.6 327.09) rotate(90)"/><rect class="cls-1" x="3.46" y="608.39" width="649.58" height="93.92"/><path d="M2.46,705.3a2,2,0,0,1-2-2V607.39a2,2,0,0,1,2-2H654.05a2,2,0,0,1,2,2V703.3a2,2,0,0,1-2,2Zm647.59-6V611.39H6.46V699.3Z"/><path d="M654.05,703.3H2.46V607.39H654.05Zm-649.59-2H652.05V609.39H4.46Z"/><rect class="cls-1" x="279.3" y="485.08" width="97.92" height="653.58" rx="2" ry="2" transform="translate(1140.13 483.61) rotate(90)"/><rect class="cls-1" x="3.46" y="764.91" width="649.58" height="93.92"/><path d="M2.46,861.83a2,2,0,0,1-2-2V763.91a2,2,0,0,1,2-2H654.05a2,2,0,0,1,2,2v95.92a2,2,0,0,1-2,2Zm647.59-6V767.91H6.46v87.92Z"/><path d="M654.05,859.83H2.46V763.91H654.05Zm-649.59-2H652.05V765.91H4.46Z"/><rect class="cls-1" x="279.3" y="641.6" width="97.92" height="653.58" rx="2" ry="2" transform="translate(1296.65 640.14) rotate(90)"/><rect class="cls-1" x="3.46" y="921.44" width="649.58" height="93.92"/><path d="M2.46,1018.35a2,2,0,0,1-2-2V920.44a2,2,0,0,1,2-2H654.05a2,2,0,0,1,2,2v95.91a2,2,0,0,1-2,2Zm647.59-6V924.44H6.46v87.91Z"/><path d="M654.05,1016.35H2.46V920.44H654.05Zm-649.59-2H652.05V922.44H4.46Z"/><path d="M653.82,454.5a2,2,0,0,1-1.28-.46L651,452.76a2,2,0,0,1-.26-2.81L1016.47,7.84,376.5,6,5.78,453.77a2,2,0,0,1-1.36.72H4.23A2,2,0,0,1,3,454l-1.54-1.28A2,2,0,0,1,1.15,450L373.08.72A2,2,0,0,1,374.62,0L1025,1.86a2,2,0,0,1,1.54,3.27L655.36,453.77a2,2,0,0,1-1.35.72Z"/><polygon points="4.24 452.5 2.69 451.22 374.62 2 375.09 2 1024.95 3.86 653.82 452.5 652.28 451.22 1020.71 5.85 375.56 4 4.24 452.5"/><path d="M654,549.18a2,2,0,0,1-1.28-.46l-1.54-1.27a2,2,0,0,1-.26-2.82l370.93-448L1021.67,3a2,2,0,0,1,2-2h2a2,2,0,0,1,1.42.58,2,2,0,0,1,.58,1.41l.22,95.05a1.94,1.94,0,0,1-.46,1.28L655.58,548.46A2,2,0,0,1,654,549.18Z"/><polygon points="654.04 547.18 652.5 545.91 1023.89 97.33 1023.67 3 1025.67 3 1025.89 98.05 654.04 547.18"/><path d="M653.82,704.94a2,2,0,0,1-1.28-.46L651,703.21a2,2,0,0,1-.71-1.36,2,2,0,0,1,.45-1.46l370.93-448V167.85L655.36,610.3a2,2,0,0,1-2.82.26L651,609.29a2,2,0,0,1-.26-2.82l373.39-451a2,2,0,0,1,3.54,1.27V253.8a2,2,0,0,1-.45,1.28L655.36,704.22A2,2,0,0,1,653.82,704.94Z"/><polygon points="653.82 702.94 652.28 701.66 1023.67 253.08 1023.67 162.3 653.82 609.02 652.28 607.75 1025.67 156.75 1025.67 253.8 1025.44 254.08 653.82 702.94"/><path d="M653.82,1018a2,2,0,0,1-1.28-.46l-1.54-1.27a2,2,0,0,1-.26-2.82l370.93-448V477.87a2,2,0,0,1,2-2h2a2,2,0,0,1,2,2v89a2,2,0,0,1-.45,1.27L655.36,1017.27A2,2,0,0,1,653.82,1018Z"/><polygon points="653.82 1015.99 652.28 1014.72 1023.67 566.13 1023.67 477.87 1025.67 477.87 1025.67 566.86 1025.44 567.13 653.82 1015.99"/><path d="M4.24,611A2.06,2.06,0,0,1,3,610.57l-1.54-1.28a2,2,0,0,1-.27-2.81l51.62-62.61a2,2,0,0,1,1.55-.73,2,2,0,0,1,1.27.46l1.54,1.27a2,2,0,0,1,.27,2.81L5.78,610.29A2,2,0,0,1,4.24,611Z"/><rect x="-11.3" y="576.08" width="81.15" height="2" transform="translate(-434.69 232.68) rotate(-50.51)"/><path d="M4.24,924.07A2.06,2.06,0,0,1,3,923.62l-1.54-1.27a2,2,0,0,1-.27-2.82l51.62-62.61a2,2,0,0,1,1.55-.73,2,2,0,0,1,1.27.46l1.54,1.27a2,2,0,0,1,.27,2.82L5.78,923.35A2,2,0,0,1,4.24,924.07Z"/><rect x="-11.3" y="889.13" width="81.15" height="2" transform="translate(-676.29 346.65) rotate(-50.51)"/><rect class="cls-1" x="279.3" y="172.03" width="97.92" height="653.58" rx="2" ry="2" transform="translate(827.07 170.56) rotate(90)"/><rect class="cls-1" x="3.46" y="451.86" width="649.58" height="93.92"/><path d="M2.46,548.78a2,2,0,0,1-2-2V450.86a2,2,0,0,1,2-2H654.05a2,2,0,0,1,2,2v95.92a2,2,0,0,1-2,2Zm647.59-6V454.86H6.46v87.92Z"/><path d="M654.05,546.78H2.46V450.86H654.05Zm-649.59-2H652.05V452.86H4.46Z"/><rect class="cls-1" x="279.3" y="328.55" width="97.92" height="653.58" rx="2" ry="2" transform="translate(983.6 327.09) rotate(90)"/><rect class="cls-1" x="3.46" y="608.39" width="649.58" height="93.92"/><path d="M2.46,705.3a2,2,0,0,1-2-2V607.39a2,2,0,0,1,2-2H654.05a2,2,0,0,1,2,2V703.3a2,2,0,0,1-2,2Zm647.59-6V611.39H6.46V699.3Z"/><path d="M654.05,703.3H2.46V607.39H654.05Zm-649.59-2H652.05V609.39H4.46Z"/><rect class="cls-1" x="279.3" y="485.08" width="97.92" height="653.58" rx="2" ry="2" transform="translate(1140.13 483.61) rotate(90)"/><rect class="cls-1" x="3.46" y="764.91" width="649.58" height="93.92"/><path d="M2.46,861.83a2,2,0,0,1-2-2V763.91a2,2,0,0,1,2-2H654.05a2,2,0,0,1,2,2v95.92a2,2,0,0,1-2,2Zm647.59-6V767.91H6.46v87.92Z"/><path d="M654.05,859.83H2.46V763.91H654.05Zm-649.59-2H652.05V765.91H4.46Z"/><rect class="cls-1" x="279.3" y="641.6" width="97.92" height="653.58" rx="2" ry="2" transform="translate(1296.65 640.14) rotate(90)"/><rect class="cls-1" x="3.46" y="921.44" width="649.58" height="93.92"/><path d="M2.46,1018.35a2,2,0,0,1-2-2V920.44a2,2,0,0,1,2-2H654.05a2,2,0,0,1,2,2v95.91a2,2,0,0,1-2,2Zm647.59-6V924.44H6.46v87.91Z"/><path d="M654.05,1016.35H2.46V920.44H654.05Zm-649.59-2H652.05V922.44H4.46Z"/><path d="M4.23,454.5A2,2,0,0,1,3,454l-1.54-1.28a2,2,0,0,1-.72-1.35A2,2,0,0,1,1.15,450L372.78,1.09A2,2,0,0,1,375.6.82l1.54,1.28a2,2,0,0,1,.26,2.81L5.78,453.77A2,2,0,0,1,4.23,454.5Z"/><rect x="-102.09" y="226.43" width="582.74" height="2" transform="translate(-106.61 228.19) rotate(-50.38)"/><rect x="1021.04" y="1" width="7.27" height="97.92" rx="2" ry="2"/><rect x="1023.04" y="3" width="3.27" height="93.92"/><path d="M653.6,705.49a2,2,0,0,1-1.28-.46l-1.54-1.27a2,2,0,0,1-.26-2.82l371.15-448.58V167.85L655.36,610.3a2,2,0,0,1-2.82.26L651,609.29a2,2,0,0,1-.26-2.82l373.39-451a2,2,0,0,1,3.54,1.27V253.8a2,2,0,0,1-.45,1.28L655.14,704.77a2,2,0,0,1-1.35.71Z"/><polygon points="653.6 703.49 652.06 702.22 1023.67 253.08 1023.67 162.3 653.82 609.02 652.28 607.75 1025.67 156.75 1025.67 253.8 1025.44 254.08 653.6 703.49"/><path d="M654.6,861.49a2,2,0,0,1-1.28-.46l-1.54-1.27a2,2,0,0,1-.27-2.82l370.15-448-.76-82.81L655,767.87a2,2,0,0,1-2.81.26l-1.54-1.27a2,2,0,0,1-.27-2.82l372.84-450.21a2,2,0,0,1,1.54-.72,2.19,2.19,0,0,1,.67.11,2,2,0,0,1,1.33,1.87l.88,95.22a2,2,0,0,1-.46,1.29L656.14,860.76a2,2,0,0,1-1.35.72Z"/><polygon points="654.6 859.49 653.06 858.22 1023.67 409.61 1022.85 320.6 653.5 766.59 651.96 765.32 1024.8 315.11 1025.68 410.32 1025.44 410.61 654.6 859.49"/><path d="M653.82,1018a2,2,0,0,1-1.28-.46l-1.54-1.27a2,2,0,0,1-.26-2.82l370.93-448V486.14L655.13,924.78a2,2,0,0,1-1.36.71h-.17a2,2,0,0,1-1.29-.47l-1.53-1.28a2,2,0,0,1-.26-2.82l373.62-447.1a2,2,0,0,1,1.53-.71,2.09,2.09,0,0,1,.69.12,2,2,0,0,1,1.31,1.88v91.74a2,2,0,0,1-.45,1.27L655.36,1017.27A2,2,0,0,1,653.82,1018Z"/><polygon points="653.82 1015.99 652.28 1014.72 1023.67 566.13 1023.67 480.63 653.6 923.5 652.06 922.21 1025.67 475.12 1025.67 566.86 1025.44 567.13 653.82 1015.99"/><rect x="971.33" y="311.85" width="56" height="6" rx="2" ry="2"/><rect x="973.33" y="313.85" width="52" height="2"/><rect x="973.33" y="153.53" width="55" height="6" rx="2" ry="2"/><rect x="975.33" y="155.53" width="51" height="2"/><rect x="969.33" y="471.87" width="58.35" height="6" rx="2" ry="2"/><rect x="971.33" y="473.87" width="54.35" height="2"/><path d="M4.24,611A2.06,2.06,0,0,1,3,610.57l-1.54-1.28a2,2,0,0,1-.27-2.81l51.62-62.61a2,2,0,0,1,1.55-.73,2,2,0,0,1,1.27.46l1.54,1.27a2,2,0,0,1,.27,2.81L5.78,610.29A2,2,0,0,1,4.24,611Z"/><rect x="-11.3" y="576.08" width="81.15" height="2" transform="translate(-434.69 232.68) rotate(-50.51)"/><path d="M3.65,767.41a2,2,0,0,1-1.12-.34L.88,766A2,2,0,0,1,0,764.67a2,2,0,0,1,.3-1.5l42.38-62.55a2,2,0,0,1,1.66-.88,1.93,1.93,0,0,1,1.12.35l1.66,1.12a2,2,0,0,1,.53,2.77L5.31,766.54A2,2,0,0,1,3.65,767.41Z"/><rect x="-13.76" y="732.58" width="75.56" height="2" transform="translate(-596.83 342.09) rotate(-55.89)"/><path d="M4.24,924.07A2.06,2.06,0,0,1,3,923.62l-1.54-1.27a2,2,0,0,1-.27-2.82l51.62-62.61a2,2,0,0,1,1.55-.73,2,2,0,0,1,1.27.46l1.54,1.27a2,2,0,0,1,.27,2.82L5.78,923.35A2,2,0,0,1,4.24,924.07Z"/><rect x="-11.3" y="889.13" width="81.15" height="2" transform="translate(-676.29 346.65) rotate(-50.51)"/></g></g></svg>