<svg preserveAspectRatio="none" xmlns="http://www.w3.org/2000/svg" viewBox="0 0 786.22 998.78"><defs><style>.cls-1{fill:#fff;}</style></defs><title>milk-bg-4</title><g id="Layer_2" data-name="Layer 2"><g id="Layer_1-2" data-name="Layer 1"><path d="M748.51,998.78H39.44V296.89l.19-.1L383.78,126.56l.14.07L748.51,296ZM40.12,998.1H747.83V296.41l-364-169.09-343.67,170Z"/><polygon points="786.22 933.06 785.54 933.06 785.54 231.03 421.5 61.94 77.64 232.02 77.34 231.42 421.49 61.19 421.64 61.25 786.22 230.6 786.22 933.06"/><polyline class="cls-1" points="384.29 126.44 384.29 61.56 421.49 1.2 421.49 61.56 383.78 126.94"/><path d="M384.07,127.11l-.58-.34L384,126V61.46l.05-.08L421.83,0V61.65l0,.08-37.16,64.42v.29h-.17Zm.56-65.45v63.13l36.53-63.32V2.39Z"/><polygon points="39.97 297.21 39.59 296.99 77.3 231.61 77.68 231.83 39.97 297.21"/><polygon points="748.46 998.61 747.88 998.27 785.54 932.2 785.54 232.97 748.51 296.29 748.51 933.06 747.83 933.06 747.83 296.11 747.88 296.03 786.22 230.47 786.22 932.38 786.18 932.46 748.46 998.61"/><rect class="cls-1" y="297.21" width="38.44" height="38.44"/></g></g></svg>