<svg xmlns="http://www.w3.org/2000/svg" viewBox="0 0 746.78 998.78"><defs><style>.cls-1{fill:#fff;}</style></defs><title>milk-bg-3</title><g id="Layer_2" data-name="Layer 2"><g id="Layer_1-2" data-name="Layer 1"><path d="M709.07,998.78H0V296.89l.19-.1L344.34,126.56l.14.07L709.07,296ZM.68,998.1H708.39V296.41l-364-169.09L.68,297.31Z"/><polygon points="746.78 933.06 746.1 933.06 746.1 231.03 382.06 61.94 38.2 232.02 37.9 231.42 382.05 61.19 382.2 61.25 746.78 230.6 746.78 933.06"/><polyline class="cls-1" points="344.85 126.44 344.85 61.56 382.06 1.2 382.06 61.56 344.34 126.94"/><path d="M344.64,127.11l-.59-.34.46-.81V61.46l.05-.08L382.39,0V61.65l0,.08-37.16,64.42v.29H345Zm.55-65.45v63.13l36.53-63.32V2.39Z"/><polygon points="0.53 297.21 0.15 296.99 37.86 231.61 38.24 231.83 0.53 297.21"/><polygon points="709.02 998.61 708.44 998.27 746.1 932.2 746.1 232.97 709.07 296.29 709.07 933.06 708.39 933.06 708.39 296.11 708.44 296.03 746.78 230.47 746.78 932.38 746.74 932.46 709.02 998.61"/></g></g></svg>