<svg xmlns="http://www.w3.org/2000/svg" viewBox="0 0 27.67 22.13"><defs><style>.cls-1{fill-rule:evenodd;}</style></defs><title>twitter</title><g id="Layer_2" data-name="Layer 2"><g id="Layer_1-2" data-name="Layer 1"><path class="cls-1" d="M27.67,2.63a12.34,12.34,0,0,1-3.26.88A5.55,5.55,0,0,0,26.92.41,11.62,11.62,0,0,1,23.3,1.77a5.7,5.7,0,0,0-9.83,3.81,5.9,5.9,0,0,0,.17,1.28A16.16,16.16,0,0,1,1.93,1a5.65,5.65,0,0,0-.78,2.81A5.59,5.59,0,0,0,3.68,8.48a5.56,5.56,0,0,1-2.57-.69v.07a5.37,5.37,0,0,0,.39,2,5.65,5.65,0,0,0,4.17,3.45,5.33,5.33,0,0,1-1.5.21,4.81,4.81,0,0,1-1.07-.12,5.73,5.73,0,0,0,5.3,3.91,11.47,11.47,0,0,1-7,2.38c-.46,0-.9,0-1.36-.07a16.44,16.44,0,0,0,8.7,2.5A15.79,15.79,0,0,0,24.47,9.62a15.17,15.17,0,0,0,.38-3.38V5.52a11.73,11.73,0,0,0,2.82-2.89Z"/></g></g></svg>